# xmcd CD database file
#
# Track frame offsets:
#	210
#	13135
#	27623
#	41863
#	53701
#	68296
#	80572
#	92266
#	106361
#	120433
#	134407
#	149320
#	163754
#	178452
#	192339
#	206723
#	218502
#	230384
#	242400
#	254693
#	267093
#	279359
#	292064
#	304343
#	317609
#
# Disc length: 4406 seconds
#
# Revision: 0
# Processed by: cddbd v1.5.2PL0 Copyright (c) Steve Scherf et al.
# Submitted via: CDex 1.70beta2
#
DISCID=71113419
DTITLE=Various Artist - Blues and Gospel From The Eastern States(1935-1944)
DYEAR=1900
DGENRE=Blues
TTITLE0=King Of Knave/Sam Montgomery(1936)
TTITLE1=King Of Knave No.2/Sam Montgomery(1936)
TTITLE2=Blue Devil Blues/Sam Montgomery(1936)
TTITLE3=Mercy Mercy Blues/Sam Montgomery(1936)
TTITLE4=Low In Mind Blues/Sam Montgomery(1936)
TTITLE5=Baby Please Don't Go/Sam Montgomery(1936)
TTITLE6=I'm Through With You/Sam Montgomery(1936)
TTITLE7=Honey Dripper/Sam Montgomery(1936)
TTITLE8=Now I'm Talking About You/Bull City Red(1935-1939)
TTITLE9=I Saw The Light/Bull City Red
TTITLE10=Richmond Blues/Bull City Red
TTITLE11=I Won't Be Dogged Around/Bull City Red
TTITLE12=Pick And Shovel Blues/Bull City Red
TTITLE13=Black Woman And Poison Blues/Bull City Red
TTITLE14=Mississippi River/Bull City Red
TTITLE15=Have You Decided(Which Way To Go)/Bull City Red
TTITLE16=I See The Sign Of Judgement/Bull City Red
TTITLE17=Everybody Wants To Know How I Die/Bull City Red
TTITLE18=I Feel Like shoutin'/Bull City Red
TTITLE19=Jesus Touched Me/Bull City Red
TTITLE20=Talkin' With Jesus/Bull City Red
TTITLE21=Way Up On The Mountain/Poor Bill(1939)
TTITLE22=A Hundred Women/Poor Bill(1939)
TTITLE23=A And B Blues/Boy Green(1944)
TTITLE24=Play My Juke Box/Boy Green(1944)
EXTD=
EXTT0=
EXTT1=
EXTT2=
EXTT3=
EXTT4=
EXTT5=
EXTT6=
EXTT7=
EXTT8=
EXTT9=
EXTT10=
EXTT11=
EXTT12=
EXTT13=
EXTT14=
EXTT15=
EXTT16=
EXTT17=
EXTT18=
EXTT19=
EXTT20=
EXTT21=
EXTT22=
EXTT23=
EXTT24=
PLAYORDER=
